<svg width="200" height="89" viewBox="0 0 200 89" fill="none" xmlns="http://www.w3.org/2000/svg">
<rect y="0.933975" width="200" height="88" rx="12" fill="black"/>
<rect x="0.5" y="1.43398" width="199" height="87" rx="11.5" stroke="url(#paint0_linear_5453_1652)" stroke-opacity="0.5"/>
<path d="M56.0474 26.9275H60.9861L73.9507 62.9404H68.8577L65.668 53.7829H51.4171L48.2274 62.9404H43.1338L56.0474 26.9275ZM64.3817 49.6157L58.5684 32.7925H58.4651L52.7544 49.6157H64.3817Z" fill="#BEBEBE"/>
<path d="M79.8105 63.5834V26.2845L85.1611 20.934H91.3862V25.1528H87.3736L84.5951 27.8794V61.9886L87.3736 64.7155H91.3862V68.934H85.1611L79.8105 63.5834Z" fill="#BEBEBE"/>
<path d="M96.6045 57.95V53.3198H101.543V56.3552L103.807 58.619H114.096L116.36 56.3552V46.7862L114.096 44.574H97.1189V26.9275H120.579V31.1976H101.955V40.2522H116.257L121.299 45.294V57.95L116.309 62.9404H101.595L96.6045 57.95Z" fill="#BEBEBE"/>
<path d="M134.518 32.0722L126.544 36.188V31.6607L135.187 26.9275H139.457V62.9404H134.518V32.0722Z" fill="#BEBEBE"/>
<path d="M145.291 68.934V64.7155H149.303L152.082 61.9886V27.8794L149.303 25.1528H145.291V20.934H151.516L156.866 26.2845V63.5834L151.516 68.934H145.291Z" fill="#BEBEBE"/>
<defs>
<linearGradient id="paint0_linear_5453_1652" x1="-23.8095" y1="-5.60655" x2="73.6664" y2="161.588" gradientUnits="userSpaceOnUse">
<stop stop-color="#15E888"/>
<stop offset="1" stop-color="#044DB5"/>
</linearGradient>
</defs>
</svg>
