<svg width="200" height="89" viewBox="0 0 200 89" fill="none" xmlns="http://www.w3.org/2000/svg">
<path d="M0 12.934C0 6.30656 5.37258 0.933975 12 0.933975H188C194.627 0.933975 200 6.30656 200 12.934V76.934C200 83.5614 194.627 88.934 188 88.934H12C5.37258 88.934 0 83.5614 0 76.934V12.934Z" fill="black"/>
<path d="M0.5 12.934C0.5 6.5827 5.64873 1.43398 12 1.43398H188C194.351 1.43398 199.5 6.5827 199.5 12.934V76.934C199.5 83.2852 194.351 88.434 188 88.434H12C5.64873 88.434 0.5 83.2852 0.5 76.934V12.934Z" stroke="url(#paint0_linear_5453_1672)" stroke-opacity="0.5"/>
<path d="M111.876 44.3227C111.519 42.8532 110.686 41.3447 109.255 40.9871C107.865 40.6686 106.515 41.5436 105.562 42.5358C103.711 44.4633 102.273 46.7323 100.498 48.7234C96.3904 53.3307 90.2003 54.6302 85.0944 51.957C81.8357 50.2508 79.607 46.7012 79.2783 42.6958C78.9497 38.6766 80.6609 34.4722 83.975 31.1619C84.5971 30.5399 85.2795 29.943 86.0035 29.3877C89.6526 26.5924 94.3505 24.6255 99.5899 23.6975C99.8631 23.6484 102.828 23.1334 103.105 23.0906L100.615 21.2812C100.218 20.9941 99.7221 20.877 99.2398 20.9601C99.1958 20.9677 99.153 20.9752 99.1089 20.9828C93.4376 21.9876 88.3254 24.137 84.3276 27.2005C83.5079 27.8289 82.7335 28.505 82.0271 29.2114C78.1388 33.0959 76.1367 38.0923 76.5321 42.9199C76.9363 47.8596 79.7266 52.2579 83.8164 54.3985C85.9544 55.5179 88.2587 56.0858 90.6096 56.0858C91.7 56.0858 92.803 55.9636 93.9023 55.7168C95.8281 55.2845 97.6457 54.4613 99.2759 53.3533C100.088 52.8016 100.853 52.1827 101.574 51.5167C102.279 50.8645 103.182 50.1175 103.617 49.2472C103.617 49.2472 103.656 49.0873 103.656 49.0496C105.363 50.281 107.31 51.0743 109.374 51.3526C109.772 51.4319 110.249 51.4709 110.644 51.272C111.084 51.0353 111.32 50.5568 111.479 50.0821C112.155 48.2538 112.312 46.229 111.876 44.3227ZM109.525 47.6431C108.877 48.2915 107.691 48.1568 106.877 47.3421C106.062 46.5287 105.927 45.3426 106.576 44.6941C107.224 44.0456 108.41 44.1804 109.224 44.995C110.038 45.8097 110.173 46.9959 109.525 47.6431Z" fill="#BEBEBE"/>
<path d="M88.1242 45.5453C88.4805 47.0147 89.3141 48.5232 90.7445 48.8808C92.1346 49.1994 93.4844 48.3243 94.4376 47.3321C96.2892 45.4046 97.7266 43.1357 99.502 41.1445C103.609 36.5372 109.799 35.2378 114.905 37.911C118.164 39.6172 120.393 43.1668 120.721 47.1721C121.05 51.1914 119.339 55.3957 116.025 58.7061C115.403 59.3281 114.72 59.925 113.996 60.4803C110.347 63.2756 105.649 65.2424 100.41 66.1704C100.137 66.2195 97.1713 66.7345 96.8943 66.7773L99.3849 68.5867C99.7815 68.8738 100.278 68.9909 100.76 68.9078C100.804 68.9003 100.847 68.8927 100.891 68.8852C106.562 67.8804 111.674 65.731 115.672 62.6674C116.492 62.0391 117.266 61.3629 117.973 60.6565C121.861 56.772 123.863 51.7756 123.468 46.948C123.063 42.0083 120.273 37.61 116.183 35.4695C114.045 34.3501 111.741 33.7822 109.39 33.7822C108.3 33.7822 107.197 33.9043 106.097 34.1511C104.172 34.5835 102.354 35.4066 100.724 36.5146C99.912 37.0664 99.1468 37.6852 98.4262 38.3513C97.7207 39.0035 96.8182 39.7504 96.3831 40.6207C96.3831 40.6207 96.344 40.7806 96.344 40.8184C94.6366 39.5869 92.6899 38.7937 90.6262 38.5154C90.2283 38.4361 89.7511 38.397 89.3557 38.596C88.9162 38.8327 88.6795 39.3112 88.5208 39.7859C87.8447 41.6142 87.6873 43.6389 88.1242 45.5453ZM90.4751 42.2249C91.1223 41.5764 92.3084 41.7112 93.1231 42.5258C93.9378 43.3392 94.0725 44.5254 93.424 45.1739C92.7755 45.8223 91.5894 45.6876 90.776 44.8729C89.9613 44.0582 89.8266 42.8721 90.4751 42.2249Z" fill="#BEBEBE"/>
<defs>
<linearGradient id="paint0_linear_5453_1672" x1="-23.8095" y1="-5.60655" x2="73.6664" y2="161.588" gradientUnits="userSpaceOnUse">
<stop stop-color="#15E888"/>
<stop offset="1" stop-color="#044DB5"/>
</linearGradient>
</defs>
</svg>
