<svg width="200" height="89" viewBox="0 0 200 89" fill="none" xmlns="http://www.w3.org/2000/svg">
<path d="M0 12.934C0 6.30654 5.37258 0.93396 12 0.93396H188C194.627 0.93396 200 6.30654 200 12.934V76.934C200 83.5614 194.627 88.934 188 88.934H12C5.37258 88.934 0 83.5614 0 76.934V12.934Z" fill="black"/>
<path d="M0.5 12.934C0.5 6.58268 5.64873 1.43396 12 1.43396H188C194.351 1.43396 199.5 6.58269 199.5 12.934V76.934C199.5 83.2852 194.351 88.434 188 88.434H12C5.64873 88.434 0.5 83.2852 0.5 76.934V12.934Z" stroke="url(#paint0_linear_5497_2)" stroke-opacity="0.5"/>
<path d="M120.582 20.934L116.25 28.7449H79.4175L84.2871 20.934H120.582Z" fill="#BEBEBE"/>
<path d="M92.5717 36.3457H82.3423L88.0523 64.5734L95.0928 51.1178L92.5717 36.3457ZM107.428 36.3457L96.2273 57.7521L90.3774 68.934H99.5796L117.657 36.3457H107.428Z" fill="#BEBEBE"/>
<defs>
<linearGradient id="paint0_linear_5497_2" x1="-23.8095" y1="-5.60657" x2="73.6664" y2="161.588" gradientUnits="userSpaceOnUse">
<stop stop-color="#15E888"/>
<stop offset="1" stop-color="#044DB5"/>
</linearGradient>
</defs>
</svg>
