<svg width="200" height="89" viewBox="0 0 200 89" fill="none" xmlns="http://www.w3.org/2000/svg">
<path d="M0 12.934C0 6.30654 5.37258 0.93396 12 0.93396H188C194.627 0.93396 200 6.30654 200 12.934V76.934C200 83.5614 194.627 88.934 188 88.934H12C5.37258 88.934 0 83.5614 0 76.934V12.934Z" fill="black"/>
<path d="M0.5 12.934C0.5 6.58268 5.64873 1.43396 12 1.43396H188C194.351 1.43396 199.5 6.58269 199.5 12.934V76.934C199.5 83.2852 194.351 88.434 188 88.434H12C5.64873 88.434 0.5 83.2852 0.5 76.934V12.934Z" stroke="url(#paint0_linear_5453_1704)" stroke-opacity="0.5"/>
<path d="M100 64.4848C89.2201 64.4848 80.4492 55.7139 80.4492 44.934C80.4492 34.154 89.2201 25.3832 100 25.3832C105.333 25.3832 110.173 27.5307 113.704 31.0034L117.129 28.1268C112.776 23.6882 106.708 20.934 100 20.934C86.7453 20.934 76 31.6793 76 44.934C76 58.1887 86.7453 68.934 100 68.934C106.708 68.934 112.776 66.1798 117.129 61.7412L113.704 58.8646C110.173 62.3373 105.333 64.4848 100 64.4848Z" fill="#BEBEBE"/>
<path d="M119.527 30.9794L116.099 33.856C117.878 36.43 119.053 39.4484 119.424 42.7087H106.202V47.1581H119.424C119.053 50.419 117.878 53.4376 116.099 56.012L119.527 58.8885C122.345 54.9555 124 50.139 124 44.9339C124 39.7289 122.345 34.9125 119.527 30.9794ZM119.55 44.8953C119.55 44.9083 119.551 44.9211 119.551 44.9339C119.551 44.9469 119.55 44.9596 119.55 44.9725V44.8953Z" fill="#BEBEBE"/>
<path d="M89.8518 42.7087H85.4023V47.1581H89.8518V42.7087Z" fill="#BEBEBE"/>
<path d="M102.476 42.7087H93.5767V47.1581H102.476V42.7087Z" fill="#BEBEBE"/>
<defs>
<linearGradient id="paint0_linear_5453_1704" x1="-23.8095" y1="-5.60657" x2="73.6664" y2="161.588" gradientUnits="userSpaceOnUse">
<stop stop-color="#15E888"/>
<stop offset="1" stop-color="#044DB5"/>
</linearGradient>
</defs>
</svg>
